<?xml version="1.0" encoding="UTF-8" standalone="no"?>
<!DOCTYPE svg PUBLIC "-//W3C//DTD SVG 1.1//EN"
 "http://www.w3.org/Graphics/SVG/1.1/DTD/svg11.dtd">
<!-- Generated by graphviz version 2.26.3 (20100126.1600)
 -->
<!-- Title: g Pages: 1 -->
<svg width="89pt" height="268pt"
 viewBox="0.00 0.00 89.00 268.00" xmlns="http://www.w3.org/2000/svg" xmlns:xlink="http://www.w3.org/1999/xlink">
<g id="graph1" class="graph" transform="scale(1 1) rotate(0) translate(4 264)">
<title>g</title>
<polygon fill="white" stroke="white" points="-4,5 -4,-264 86,-264 86,5 -4,5"/>
<!-- a -->
<g id="node1" class="node"><title>a</title>
<ellipse fill="none" stroke="black" cx="54" cy="-241" rx="27" ry="18.3848"/>
<text text-anchor="middle" x="54" y="-237.4" font-family="Times Roman,serif" font-size="14.00">a</text>
</g>
<!-- b -->
<g id="node3" class="node"><title>b</title>
<ellipse fill="none" stroke="black" cx="27" cy="-167" rx="27" ry="18.3848"/>
<text text-anchor="middle" x="27" y="-163.4" font-family="Times Roman,serif" font-size="14.00">b</text>
</g>
<!-- a&#45;&gt;b -->
<g id="edge2" class="edge"><title>a&#45;&gt;b</title>
<path fill="none" stroke="black" d="M47.3258,-222.708C44.2524,-214.284 40.5384,-204.105 37.1305,-194.765"/>
<polygon fill="black" stroke="black" points="40.3131,-193.276 33.5974,-185.082 33.7371,-195.676 40.3131,-193.276"/>
</g>
<!-- c -->
<g id="node5" class="node"><title>c</title>
<ellipse fill="none" stroke="black" cx="27" cy="-93" rx="27" ry="18.3848"/>
<text text-anchor="middle" x="27" y="-89.4" font-family="Times Roman,serif" font-size="14.00">c</text>
</g>
<!-- b&#45;&gt;c -->
<g id="edge4" class="edge"><title>b&#45;&gt;c</title>
<path fill="none" stroke="black" d="M27,-148.327C27,-140.264 27,-130.648 27,-121.711"/>
<polygon fill="black" stroke="black" points="30.5001,-121.667 27,-111.667 23.5001,-121.667 30.5001,-121.667"/>
</g>
<!-- d -->
<g id="node7" class="node"><title>d</title>
<ellipse fill="none" stroke="black" cx="54" cy="-19" rx="27" ry="18.3848"/>
<text text-anchor="middle" x="54" y="-15.4" font-family="Times Roman,serif" font-size="14.00">d</text>
</g>
<!-- c&#45;&gt;d -->
<g id="edge6" class="edge"><title>c&#45;&gt;d</title>
<path fill="none" stroke="black" d="M33.6742,-74.7079C36.7476,-66.2843 40.4616,-56.1052 43.8695,-46.7649"/>
<polygon fill="black" stroke="black" points="47.2629,-47.6756 47.4026,-37.0817 40.6869,-45.2763 47.2629,-47.6756"/>
</g>
<!-- d&#45;&gt;a -->
<g id="edge8" class="edge"><title>d&#45;&gt;a</title>
<path fill="none" stroke="black" d="M57.7944,-37.4924C59.7818,-48.1207 62.0045,-61.7524 63,-74 67.0325,-123.614 67.0325,-136.386 63,-186 62.2923,-194.707 60.9643,-204.114 59.5415,-212.644"/>
<polygon fill="black" stroke="black" points="56.0923,-212.05 57.7944,-222.508 62.985,-213.271 56.0923,-212.05"/>
</g>
</g>
</svg>
