<?xml version="1.0" encoding="UTF-8" standalone="no"?>
<!DOCTYPE svg PUBLIC "-//W3C//DTD SVG 1.1//EN"
 "http://www.w3.org/Graphics/SVG/1.1/DTD/svg11.dtd">
<!-- Generated by graphviz version 2.38.0 (20140413.2041)
 -->
<!-- Title: G Pages: 1 -->
<svg width="557pt" height="531pt"
 viewBox="0.00 0.00 557.49 531.00" xmlns="http://www.w3.org/2000/svg" xmlns:xlink="http://www.w3.org/1999/xlink">
<g id="graph0" class="graph" transform="scale(1 1) rotate(0) translate(4 527)">
<title>G</title>
<polygon fill="white" stroke="none" points="-4,4 -4,-527 553.486,-527 553.486,4 -4,4"/>
<!-- IDENTITY -->
<g id="node1" class="node"><title>IDENTITY</title>
<ellipse fill="none" stroke="black" cx="297.791" cy="-505" rx="51.9908" ry="18"/>
<text text-anchor="middle" x="297.791" y="-501.3" font-family="Times,serif" font-size="14.00">IDENTITY</text>
</g>
<!-- USER -->
<g id="node2" class="node"><title>USER</title>
<ellipse fill="none" stroke="black" cx="265.791" cy="-378" rx="33.2948" ry="18"/>
<text text-anchor="middle" x="265.791" y="-374.3" font-family="Times,serif" font-size="14.00">USER</text>
</g>
<!-- IDENTITY&#45;&gt;USER -->
<g id="edge1" class="edge"><title>IDENTITY&#45;&gt;USER</title>
<path fill="none" stroke="black" d="M293.409,-486.881C288.047,-465.936 278.908,-430.238 272.621,-405.68"/>
<polygon fill="black" stroke="black" points="275.991,-404.731 270.121,-395.912 269.21,-406.468 275.991,-404.731"/>
</g>
<!-- TEAM_ROLE -->
<g id="node3" class="node"><title>TEAM_ROLE</title>
<ellipse fill="none" stroke="black" cx="367.791" cy="-432" rx="63.8893" ry="18"/>
<text text-anchor="middle" x="367.791" y="-428.3" font-family="Times,serif" font-size="14.00">TEAM_ROLE</text>
</g>
<!-- IDENTITY&#45;&gt;TEAM_ROLE -->
<g id="edge2" class="edge"><title>IDENTITY&#45;&gt;TEAM_ROLE</title>
<path fill="none" stroke="black" d="M314.027,-487.533C322.909,-478.523 334.082,-467.191 343.937,-457.195"/>
<polygon fill="black" stroke="black" points="346.629,-459.449 351.158,-449.871 341.645,-454.535 346.629,-459.449"/>
</g>
<!-- WORKITEM -->
<g id="node4" class="node"><title>WORKITEM</title>
<ellipse fill="none" stroke="black" cx="263.791" cy="-164" rx="59.5901" ry="18"/>
<text text-anchor="middle" x="263.791" y="-160.3" font-family="Times,serif" font-size="14.00">WORKITEM</text>
</g>
<!-- USER&#45;&gt;WORKITEM -->
<g id="edge3" class="edge"><title>USER&#45;&gt;WORKITEM</title>
<path fill="none" stroke="black" d="M265.628,-359.651C265.28,-322.834 264.467,-236.638 264.049,-192.342"/>
<polygon fill="black" stroke="black" points="267.549,-192.258 263.954,-182.291 260.549,-192.324 267.549,-192.258"/>
<text text-anchor="middle" x="311.291" y="-276.8" font-family="Times,serif" font-size="14.00">CRUD|Assigned</text>
</g>
<!-- TEAM -->
<g id="node5" class="node"><title>TEAM</title>
<ellipse fill="none" stroke="black" cx="367.791" cy="-324" rx="36.2938" ry="18"/>
<text text-anchor="middle" x="367.791" y="-320.3" font-family="Times,serif" font-size="14.00">TEAM</text>
</g>
<!-- TEAM_ROLE&#45;&gt;TEAM -->
<g id="edge4" class="edge"><title>TEAM_ROLE&#45;&gt;TEAM</title>
<path fill="none" stroke="black" d="M367.791,-413.969C367.791,-397.378 367.791,-371.883 367.791,-352.431"/>
<polygon fill="black" stroke="black" points="371.291,-352.341 367.791,-342.341 364.291,-352.341 371.291,-352.341"/>
</g>
<!-- PERMISSION -->
<g id="node6" class="node"><title>PERMISSION</title>
<ellipse fill="none" stroke="black" cx="485.791" cy="-324" rx="63.8893" ry="18"/>
<text text-anchor="middle" x="485.791" y="-320.3" font-family="Times,serif" font-size="14.00">PERMISSION</text>
</g>
<!-- TEAM_ROLE&#45;&gt;PERMISSION -->
<g id="edge5" class="edge"><title>TEAM_ROLE&#45;&gt;PERMISSION</title>
<path fill="none" stroke="black" d="M385.97,-414.67C405.748,-396.903 437.53,-368.354 459.909,-348.25"/>
<polygon fill="black" stroke="black" points="462.297,-350.81 467.397,-341.523 457.619,-345.602 462.297,-350.81"/>
</g>
<!-- WORKITEM&#45;&gt;WORKITEM -->
<g id="edge9" class="edge"><title>WORKITEM&#45;&gt;WORKITEM</title>
<path fill="none" stroke="black" d="M319.736,-170.585C332.355,-169.992 341.586,-167.797 341.586,-164 341.586,-161.33 337.022,-159.453 329.926,-158.367"/>
<polygon fill="black" stroke="black" points="330.018,-154.86 319.736,-157.415 329.367,-161.83 330.018,-154.86"/>
<text text-anchor="middle" x="353.586" y="-160.3" font-family="Times,serif" font-size="14.00">path</text>
</g>
<!-- WORKITEM_TYPE -->
<g id="node9" class="node"><title>WORKITEM_TYPE</title>
<ellipse fill="none" stroke="black" cx="117.791" cy="-91" rx="86.3847" ry="18"/>
<text text-anchor="middle" x="117.791" y="-87.3" font-family="Times,serif" font-size="14.00">WORKITEM_TYPE</text>
</g>
<!-- WORKITEM&#45;&gt;WORKITEM_TYPE -->
<g id="edge10" class="edge"><title>WORKITEM&#45;&gt;WORKITEM_TYPE</title>
<path fill="none" stroke="black" d="M233.54,-148.289C212.083,-137.854 183.017,-123.72 159.381,-112.225"/>
<polygon fill="black" stroke="black" points="160.809,-109.028 150.285,-107.802 157.748,-115.323 160.809,-109.028"/>
</g>
<!-- LINK -->
<g id="node10" class="node"><title>LINK</title>
<ellipse fill="none" stroke="black" cx="263.791" cy="-91" rx="31.6951" ry="18"/>
<text text-anchor="middle" x="263.791" y="-87.3" font-family="Times,serif" font-size="14.00">LINK</text>
</g>
<!-- WORKITEM&#45;&gt;LINK -->
<g id="edge11" class="edge"><title>WORKITEM&#45;&gt;LINK</title>
<path fill="none" stroke="black" d="M257.913,-145.813C257.074,-137.789 256.84,-128.047 257.213,-119.069"/>
<polygon fill="black" stroke="black" points="260.709,-119.253 257.93,-109.029 253.727,-118.754 260.709,-119.253"/>
</g>
<!-- PROJECT -->
<g id="node7" class="node"><title>PROJECT</title>
<ellipse fill="none" stroke="black" cx="369.791" cy="-237" rx="48.1917" ry="18"/>
<text text-anchor="middle" x="369.791" y="-233.3" font-family="Times,serif" font-size="14.00">PROJECT</text>
</g>
<!-- TEAM&#45;&gt;PROJECT -->
<g id="edge6" class="edge"><title>TEAM&#45;&gt;PROJECT</title>
<path fill="none" stroke="black" d="M368.196,-305.799C368.47,-294.163 368.837,-278.548 369.15,-265.237"/>
<polygon fill="black" stroke="black" points="372.651,-265.255 369.387,-255.175 365.653,-265.09 372.651,-265.255"/>
</g>
<!-- PROJECT&#45;&gt;WORKITEM -->
<g id="edge7" class="edge"><title>PROJECT&#45;&gt;WORKITEM</title>
<path fill="none" stroke="black" d="M347.311,-220.943C332.303,-210.89 312.343,-197.52 295.699,-186.372"/>
<polygon fill="black" stroke="black" points="297.597,-183.431 287.341,-180.774 293.701,-189.247 297.597,-183.431"/>
</g>
<!-- REPOSITORY -->
<g id="node8" class="node"><title>REPOSITORY</title>
<ellipse fill="none" stroke="black" cx="448.791" cy="-164" rx="64.9885" ry="18"/>
<text text-anchor="middle" x="448.791" y="-160.3" font-family="Times,serif" font-size="14.00">REPOSITORY</text>
</g>
<!-- PROJECT&#45;&gt;REPOSITORY -->
<g id="edge8" class="edge"><title>PROJECT&#45;&gt;REPOSITORY</title>
<path fill="none" stroke="black" d="M387.718,-219.889C398.148,-210.515 411.474,-198.538 423.015,-188.166"/>
<polygon fill="black" stroke="black" points="425.564,-190.581 430.662,-181.293 420.885,-185.374 425.564,-190.581"/>
</g>
<!-- WORKITEM_FAMILY -->
<g id="node11" class="node"><title>WORKITEM_FAMILY</title>
<ellipse fill="none" stroke="black" cx="98.7912" cy="-18" rx="98.5829" ry="18"/>
<text text-anchor="middle" x="98.7912" y="-14.3" font-family="Times,serif" font-size="14.00">WORKITEM_FAMILY</text>
</g>
<!-- WORKITEM_TYPE&#45;&gt;WORKITEM_FAMILY -->
<g id="edge12" class="edge"><title>WORKITEM_TYPE&#45;&gt;WORKITEM_FAMILY</title>
<path fill="none" stroke="black" d="M113.192,-72.8129C111.021,-64.7023 108.381,-54.8355 105.957,-45.7766"/>
<polygon fill="black" stroke="black" points="109.314,-44.7841 103.348,-36.0288 102.552,-46.5937 109.314,-44.7841"/>
</g>
<!-- LINK&#45;&gt;WORKITEM -->
<g id="edge13" class="edge"><title>LINK&#45;&gt;WORKITEM</title>
<path fill="none" stroke="black" d="M269.653,-109.029C270.5,-117.029 270.741,-126.765 270.376,-135.753"/>
<polygon fill="black" stroke="black" points="266.879,-135.592 269.669,-145.813 273.862,-136.083 266.879,-135.592"/>
</g>
<!-- LINK_TYPE -->
<g id="node12" class="node"><title>LINK_TYPE</title>
<ellipse fill="none" stroke="black" cx="273.791" cy="-18" rx="57.6901" ry="18"/>
<text text-anchor="middle" x="273.791" y="-14.3" font-family="Times,serif" font-size="14.00">LINK_TYPE</text>
</g>
<!-- LINK&#45;&gt;LINK_TYPE -->
<g id="edge14" class="edge"><title>LINK&#45;&gt;LINK_TYPE</title>
<path fill="none" stroke="black" d="M266.212,-72.8129C267.342,-64.7895 268.714,-55.0475 269.979,-46.0691"/>
<polygon fill="black" stroke="black" points="273.464,-46.4193 271.393,-36.0288 266.532,-45.4429 273.464,-46.4193"/>
</g>
</g>
</svg>
