<?xml version="1.0" encoding="UTF-8" standalone="no"?>
<!DOCTYPE svg PUBLIC "-//W3C//DTD SVG 1.1//EN"
 "http://www.w3.org/Graphics/SVG/1.1/DTD/svg11.dtd">
<!-- Generated by graphviz version 2.36.0 (20140111.2315)
 -->
<!-- Title: G Pages: 1 -->
<svg width="372pt" height="562pt"
 viewBox="0.00 0.00 372.00 562.00" xmlns="http://www.w3.org/2000/svg" xmlns:xlink="http://www.w3.org/1999/xlink">
<g id="graph0" class="graph" transform="scale(1 1) rotate(0) translate(4 558)">
<title>G</title>
<polygon fill="white" stroke="none" points="-4,4 -4,-558 368,-558 368,4 -4,4"/>
<!-- IDENTITY -->
<g id="node1" class="node"><title>IDENTITY</title>
<ellipse fill="none" stroke="black" cx="234" cy="-536" rx="51.4931" ry="18"/>
<text text-anchor="middle" x="234" y="-532.3" font-family="Times,serif" font-size="14.00">IDENTITY</text>
</g>
<!-- USER -->
<g id="node2" class="node"><title>USER</title>
<ellipse fill="none" stroke="black" cx="234" cy="-462" rx="33.2209" ry="18"/>
<text text-anchor="middle" x="234" y="-458.3" font-family="Times,serif" font-size="14.00">USER</text>
</g>
<!-- IDENTITY&#45;&gt;USER -->
<g id="edge1" class="edge"><title>IDENTITY&#45;&gt;USER</title>
<path fill="none" stroke="black" d="M234,-517.937C234,-509.807 234,-499.876 234,-490.705"/>
<polygon fill="black" stroke="black" points="237.5,-490.441 234,-480.441 230.5,-490.441 237.5,-490.441"/>
</g>
<!-- TEAM_ROLE -->
<g id="node3" class="node"><title>TEAM_ROLE</title>
<ellipse fill="none" stroke="black" cx="171" cy="-388" rx="63.5411" ry="18"/>
<text text-anchor="middle" x="171" y="-384.3" font-family="Times,serif" font-size="14.00">TEAM_ROLE</text>
</g>
<!-- USER&#45;&gt;TEAM_ROLE -->
<g id="edge2" class="edge"><title>USER&#45;&gt;TEAM_ROLE</title>
<path fill="none" stroke="black" d="M220.33,-445.377C212.14,-436.017 201.552,-423.917 192.286,-413.327"/>
<polygon fill="black" stroke="black" points="194.739,-410.816 185.52,-405.595 189.471,-415.425 194.739,-410.816"/>
</g>
<!-- WORKITEM -->
<g id="node4" class="node"><title>WORKITEM</title>
<ellipse fill="none" stroke="black" cx="263" cy="-166" rx="59.1941" ry="18"/>
<text text-anchor="middle" x="263" y="-162.3" font-family="Times,serif" font-size="14.00">WORKITEM</text>
</g>
<!-- USER&#45;&gt;WORKITEM -->
<g id="edge3" class="edge"><title>USER&#45;&gt;WORKITEM</title>
<path fill="none" stroke="black" d="M244.634,-444.868C252.91,-430.742 263,-409.349 263,-389 263,-389 263,-389 263,-239 263,-224.205 263,-207.7 263,-194.229"/>
<polygon fill="black" stroke="black" points="266.5,-194.166 263,-184.166 259.5,-194.166 266.5,-194.166"/>
<text text-anchor="middle" x="308.5" y="-310.3" font-family="Times,serif" font-size="14.00">CRUD|Assigned</text>
</g>
<!-- TEAM -->
<g id="node5" class="node"><title>TEAM</title>
<ellipse fill="none" stroke="black" cx="183" cy="-314" rx="36.096" ry="18"/>
<text text-anchor="middle" x="183" y="-310.3" font-family="Times,serif" font-size="14.00">TEAM</text>
</g>
<!-- TEAM_ROLE&#45;&gt;TEAM -->
<g id="edge4" class="edge"><title>TEAM_ROLE&#45;&gt;TEAM</title>
<path fill="none" stroke="black" d="M173.844,-369.937C175.214,-361.719 176.89,-351.66 178.432,-342.406"/>
<polygon fill="black" stroke="black" points="181.902,-342.88 180.093,-332.441 174.997,-341.729 181.902,-342.88"/>
</g>
<!-- PERMISSION -->
<g id="node6" class="node"><title>PERMISSION</title>
<ellipse fill="none" stroke="black" cx="65" cy="-314" rx="63.5411" ry="18"/>
<text text-anchor="middle" x="65" y="-310.3" font-family="Times,serif" font-size="14.00">PERMISSION</text>
</g>
<!-- TEAM_ROLE&#45;&gt;PERMISSION -->
<g id="edge5" class="edge"><title>TEAM_ROLE&#45;&gt;PERMISSION</title>
<path fill="none" stroke="black" d="M147.738,-371.199C132.826,-361.07 113.27,-347.787 96.915,-336.678"/>
<polygon fill="black" stroke="black" points="98.4467,-333.487 88.2079,-330.764 94.5135,-339.278 98.4467,-333.487"/>
</g>
<!-- WORKITEM&#45;&gt;WORKITEM -->
<g id="edge9" class="edge"><title>WORKITEM&#45;&gt;WORKITEM</title>
<path fill="none" stroke="black" d="M318.373,-172.585C330.864,-171.992 340,-169.797 340,-166 340,-163.33 335.483,-161.453 328.459,-160.367"/>
<polygon fill="black" stroke="black" points="328.657,-156.87 318.373,-159.415 328,-163.839 328.657,-156.87"/>
<text text-anchor="middle" x="352" y="-162.3" font-family="Times,serif" font-size="14.00">path</text>
</g>
<!-- WORKITEM_TYPE -->
<g id="node9" class="node"><title>WORKITEM_TYPE</title>
<ellipse fill="none" stroke="black" cx="117" cy="-92" rx="86.1637" ry="18"/>
<text text-anchor="middle" x="117" y="-88.3" font-family="Times,serif" font-size="14.00">WORKITEM_TYPE</text>
</g>
<!-- WORKITEM&#45;&gt;WORKITEM_TYPE -->
<g id="edge10" class="edge"><title>WORKITEM&#45;&gt;WORKITEM_TYPE</title>
<path fill="none" stroke="black" d="M233.102,-150.256C211.523,-139.614 182.115,-125.111 158.296,-113.365"/>
<polygon fill="black" stroke="black" points="159.654,-110.132 149.137,-108.848 156.558,-116.41 159.654,-110.132"/>
</g>
<!-- LINK -->
<g id="node10" class="node"><title>LINK</title>
<ellipse fill="none" stroke="black" cx="263" cy="-92" rx="31.2735" ry="18"/>
<text text-anchor="middle" x="263" y="-88.3" font-family="Times,serif" font-size="14.00">LINK</text>
</g>
<!-- WORKITEM&#45;&gt;LINK -->
<g id="edge11" class="edge"><title>WORKITEM&#45;&gt;LINK</title>
<path fill="none" stroke="black" d="M257.16,-147.937C256.275,-139.598 256.036,-129.364 256.441,-119.998"/>
<polygon fill="black" stroke="black" points="259.938,-120.168 257.173,-109.941 252.956,-119.66 259.938,-120.168"/>
</g>
<!-- PROJECT -->
<g id="node7" class="node"><title>PROJECT</title>
<ellipse fill="none" stroke="black" cx="183" cy="-240" rx="48.1437" ry="18"/>
<text text-anchor="middle" x="183" y="-236.3" font-family="Times,serif" font-size="14.00">PROJECT</text>
</g>
<!-- TEAM&#45;&gt;PROJECT -->
<g id="edge6" class="edge"><title>TEAM&#45;&gt;PROJECT</title>
<path fill="none" stroke="black" d="M183,-295.937C183,-287.807 183,-277.876 183,-268.705"/>
<polygon fill="black" stroke="black" points="186.5,-268.441 183,-258.441 179.5,-268.441 186.5,-268.441"/>
</g>
<!-- PROJECT&#45;&gt;WORKITEM -->
<g id="edge7" class="edge"><title>PROJECT&#45;&gt;WORKITEM</title>
<path fill="none" stroke="black" d="M200.755,-223.021C211.554,-213.301 225.526,-200.726 237.495,-189.954"/>
<polygon fill="black" stroke="black" points="239.927,-192.475 245.018,-183.183 235.244,-187.272 239.927,-192.475"/>
</g>
<!-- REPOSITORY -->
<g id="node8" class="node"><title>REPOSITORY</title>
<ellipse fill="none" stroke="black" cx="120" cy="-166" rx="64.4914" ry="18"/>
<text text-anchor="middle" x="120" y="-162.3" font-family="Times,serif" font-size="14.00">REPOSITORY</text>
</g>
<!-- PROJECT&#45;&gt;REPOSITORY -->
<g id="edge8" class="edge"><title>PROJECT&#45;&gt;REPOSITORY</title>
<path fill="none" stroke="black" d="M168.704,-222.662C160.604,-213.405 150.314,-201.645 141.281,-191.322"/>
<polygon fill="black" stroke="black" points="143.895,-188.994 134.676,-183.773 138.627,-193.603 143.895,-188.994"/>
</g>
<!-- WORKITEM_FAMILY -->
<g id="node11" class="node"><title>WORKITEM_FAMILY</title>
<ellipse fill="none" stroke="black" cx="98" cy="-18" rx="98.1881" ry="18"/>
<text text-anchor="middle" x="98" y="-14.3" font-family="Times,serif" font-size="14.00">WORKITEM_FAMILY</text>
</g>
<!-- WORKITEM_TYPE&#45;&gt;WORKITEM_FAMILY -->
<g id="edge12" class="edge"><title>WORKITEM_TYPE&#45;&gt;WORKITEM_FAMILY</title>
<path fill="none" stroke="black" d="M112.497,-73.937C110.329,-65.7188 107.674,-55.66 105.232,-46.4059"/>
<polygon fill="black" stroke="black" points="108.538,-45.2166 102.602,-36.4407 101.77,-47.0027 108.538,-45.2166"/>
</g>
<!-- LINK&#45;&gt;WORKITEM -->
<g id="edge13" class="edge"><title>LINK&#45;&gt;WORKITEM</title>
<path fill="none" stroke="black" d="M268.827,-109.941C269.718,-118.261 269.964,-128.49 269.565,-137.864"/>
<polygon fill="black" stroke="black" points="266.067,-137.712 268.84,-147.937 273.049,-138.214 266.067,-137.712"/>
</g>
<!-- LINK_TYPE -->
<g id="node12" class="node"><title>LINK_TYPE</title>
<ellipse fill="none" stroke="black" cx="273" cy="-18" rx="57.2688" ry="18"/>
<text text-anchor="middle" x="273" y="-14.3" font-family="Times,serif" font-size="14.00">LINK_TYPE</text>
</g>
<!-- LINK&#45;&gt;LINK_TYPE -->
<g id="edge14" class="edge"><title>LINK&#45;&gt;LINK_TYPE</title>
<path fill="none" stroke="black" d="M265.37,-73.937C266.511,-65.7188 267.908,-55.66 269.194,-46.4059"/>
<polygon fill="black" stroke="black" points="272.669,-46.8271 270.578,-36.4407 265.735,-45.8641 272.669,-46.8271"/>
</g>
</g>
</svg>
