<?xml version="1.0" encoding="UTF-8" standalone="no"?>
<!DOCTYPE svg PUBLIC "-//W3C//DTD SVG 1.1//EN"
 "http://www.w3.org/Graphics/SVG/1.1/DTD/svg11.dtd">
<!-- Generated by graphviz version 2.36.0 (20140111.2315)
 -->
<!-- Title: G Pages: 1 -->
<svg width="330pt" height="502pt"
 viewBox="0.00 0.00 330.00 502.00" xmlns="http://www.w3.org/2000/svg" xmlns:xlink="http://www.w3.org/1999/xlink">
<g id="graph0" class="graph" transform="scale(1 1) rotate(0) translate(4 498)">
<title>G</title>
<polygon fill="white" stroke="none" points="-4,4 -4,-498 326,-498 326,4 -4,4"/>
<!-- IDENTITY -->
<g id="node1" class="node"><title>IDENTITY</title>
<ellipse fill="none" stroke="black" cx="220" cy="-476" rx="51.4931" ry="18"/>
<text text-anchor="middle" x="220" y="-472.3" font-family="Times,serif" font-size="14.00">IDENTITY</text>
</g>
<!-- USER -->
<g id="node2" class="node"><title>USER</title>
<ellipse fill="none" stroke="black" cx="220" cy="-402" rx="33.2209" ry="18"/>
<text text-anchor="middle" x="220" y="-398.3" font-family="Times,serif" font-size="14.00">USER</text>
</g>
<!-- IDENTITY&#45;&gt;USER -->
<g id="edge1" class="edge"><title>IDENTITY&#45;&gt;USER</title>
<path fill="none" stroke="black" d="M220,-457.937C220,-449.807 220,-439.876 220,-430.705"/>
<polygon fill="black" stroke="black" points="223.5,-430.441 220,-420.441 216.5,-430.441 223.5,-430.441"/>
</g>
<!-- TEAM -->
<g id="node3" class="node"><title>TEAM</title>
<ellipse fill="none" stroke="black" cx="163" cy="-328" rx="36.096" ry="18"/>
<text text-anchor="middle" x="163" y="-324.3" font-family="Times,serif" font-size="14.00">TEAM</text>
</g>
<!-- USER&#45;&gt;TEAM -->
<g id="edge2" class="edge"><title>USER&#45;&gt;TEAM</title>
<path fill="none" stroke="black" d="M207.35,-385.021C199.896,-375.606 190.322,-363.513 181.979,-352.973"/>
<polygon fill="black" stroke="black" points="184.566,-350.602 175.615,-344.934 179.078,-354.947 184.566,-350.602"/>
</g>
<!-- WORKITEM -->
<g id="node4" class="node"><title>WORKITEM</title>
<ellipse fill="none" stroke="black" cx="221" cy="-166" rx="59.1941" ry="18"/>
<text text-anchor="middle" x="221" y="-162.3" font-family="Times,serif" font-size="14.00">WORKITEM</text>
</g>
<!-- USER&#45;&gt;WORKITEM -->
<g id="edge3" class="edge"><title>USER&#45;&gt;WORKITEM</title>
<path fill="none" stroke="black" d="M220.074,-383.793C220.245,-343.562 220.675,-243.077 220.883,-194.351"/>
<polygon fill="black" stroke="black" points="224.383,-194.247 220.926,-184.232 217.384,-194.217 224.383,-194.247"/>
<text text-anchor="middle" x="266.5" y="-280.3" font-family="Times,serif" font-size="14.00">CRUD|Assigned</text>
</g>
<!-- ROLE -->
<g id="node5" class="node"><title>ROLE</title>
<ellipse fill="none" stroke="black" cx="63" cy="-240" rx="33.1991" ry="18"/>
<text text-anchor="middle" x="63" y="-236.3" font-family="Times,serif" font-size="14.00">ROLE</text>
</g>
<!-- TEAM&#45;&gt;ROLE -->
<g id="edge4" class="edge"><title>TEAM&#45;&gt;ROLE</title>
<path fill="none" stroke="black" d="M145.581,-312.02C129.665,-298.332 105.946,-277.934 88.0062,-262.505"/>
<polygon fill="black" stroke="black" points="90.0831,-259.675 80.2191,-255.808 85.5188,-264.982 90.0831,-259.675"/>
</g>
<!-- PROJECT -->
<g id="node6" class="node"><title>PROJECT</title>
<ellipse fill="none" stroke="black" cx="163" cy="-240" rx="48.1437" ry="18"/>
<text text-anchor="middle" x="163" y="-236.3" font-family="Times,serif" font-size="14.00">PROJECT</text>
</g>
<!-- TEAM&#45;&gt;PROJECT -->
<g id="edge5" class="edge"><title>TEAM&#45;&gt;PROJECT</title>
<path fill="none" stroke="black" d="M163,-309.597C163,-297.746 163,-281.817 163,-268.292"/>
<polygon fill="black" stroke="black" points="166.5,-268.084 163,-258.084 159.5,-268.084 166.5,-268.084"/>
</g>
<!-- WORKITEM&#45;&gt;WORKITEM -->
<g id="edge8" class="edge"><title>WORKITEM&#45;&gt;WORKITEM</title>
<path fill="none" stroke="black" d="M276.373,-172.585C288.864,-171.992 298,-169.797 298,-166 298,-163.33 293.483,-161.453 286.459,-160.367"/>
<polygon fill="black" stroke="black" points="286.657,-156.87 276.373,-159.415 286,-163.839 286.657,-156.87"/>
<text text-anchor="middle" x="310" y="-162.3" font-family="Times,serif" font-size="14.00">path</text>
</g>
<!-- WORKITEM_TYPE -->
<g id="node8" class="node"><title>WORKITEM_TYPE</title>
<ellipse fill="none" stroke="black" cx="221" cy="-92" rx="86.1637" ry="18"/>
<text text-anchor="middle" x="221" y="-88.3" font-family="Times,serif" font-size="14.00">WORKITEM_TYPE</text>
</g>
<!-- WORKITEM&#45;&gt;WORKITEM_TYPE -->
<g id="edge9" class="edge"><title>WORKITEM&#45;&gt;WORKITEM_TYPE</title>
<path fill="none" stroke="black" d="M221,-147.937C221,-139.807 221,-129.876 221,-120.705"/>
<polygon fill="black" stroke="black" points="224.5,-120.441 221,-110.441 217.5,-120.441 224.5,-120.441"/>
</g>
<!-- PERMISSION -->
<g id="node7" class="node"><title>PERMISSION</title>
<ellipse fill="none" stroke="black" cx="63" cy="-166" rx="63.5411" ry="18"/>
<text text-anchor="middle" x="63" y="-162.3" font-family="Times,serif" font-size="14.00">PERMISSION</text>
</g>
<!-- ROLE&#45;&gt;PERMISSION -->
<g id="edge6" class="edge"><title>ROLE&#45;&gt;PERMISSION</title>
<path fill="none" stroke="black" d="M63,-221.937C63,-213.807 63,-203.876 63,-194.705"/>
<polygon fill="black" stroke="black" points="66.5001,-194.441 63,-184.441 59.5001,-194.441 66.5001,-194.441"/>
</g>
<!-- PROJECT&#45;&gt;WORKITEM -->
<g id="edge7" class="edge"><title>PROJECT&#45;&gt;WORKITEM</title>
<path fill="none" stroke="black" d="M176.161,-222.662C183.545,-213.495 192.906,-201.875 201.163,-191.626"/>
<polygon fill="black" stroke="black" points="203.941,-193.756 207.488,-183.773 198.49,-189.365 203.941,-193.756"/>
</g>
<!-- WORKITEM_FAMILY -->
<g id="node9" class="node"><title>WORKITEM_FAMILY</title>
<ellipse fill="none" stroke="black" cx="221" cy="-18" rx="98.1881" ry="18"/>
<text text-anchor="middle" x="221" y="-14.3" font-family="Times,serif" font-size="14.00">WORKITEM_FAMILY</text>
</g>
<!-- WORKITEM_TYPE&#45;&gt;WORKITEM_FAMILY -->
<g id="edge10" class="edge"><title>WORKITEM_TYPE&#45;&gt;WORKITEM_FAMILY</title>
<path fill="none" stroke="black" d="M221,-73.937C221,-65.8072 221,-55.8761 221,-46.7047"/>
<polygon fill="black" stroke="black" points="224.5,-46.4406 221,-36.4407 217.5,-46.4407 224.5,-46.4406"/>
</g>
</g>
</svg>
