<?xml version="1.0" encoding="UTF-8" standalone="no"?>
<!DOCTYPE svg PUBLIC "-//W3C//DTD SVG 1.1//EN"
 "http://www.w3.org/Graphics/SVG/1.1/DTD/svg11.dtd">
<!-- Generated by graphviz version 2.36.0 (20140111.2315)
 -->
<!-- Title: G Pages: 1 -->
<svg width="556pt" height="536pt"
 viewBox="0.00 0.00 556.00 536.00" xmlns="http://www.w3.org/2000/svg" xmlns:xlink="http://www.w3.org/1999/xlink">
<g id="graph0" class="graph" transform="scale(1 1) rotate(0) translate(4 532)">
<title>G</title>
<polygon fill="white" stroke="none" points="-4,4 -4,-532 552,-532 552,4 -4,4"/>
<!-- IDENTITY -->
<g id="node1" class="node"><title>IDENTITY</title>
<ellipse fill="none" stroke="black" cx="297" cy="-510" rx="51.4931" ry="18"/>
<text text-anchor="middle" x="297" y="-506.3" font-family="Times,serif" font-size="14.00">IDENTITY</text>
</g>
<!-- USER -->
<g id="node2" class="node"><title>USER</title>
<ellipse fill="none" stroke="black" cx="265" cy="-382" rx="33.2209" ry="18"/>
<text text-anchor="middle" x="265" y="-378.3" font-family="Times,serif" font-size="14.00">USER</text>
</g>
<!-- IDENTITY&#45;&gt;USER -->
<g id="edge1" class="edge"><title>IDENTITY&#45;&gt;USER</title>
<path fill="none" stroke="black" d="M292.684,-492.007C287.34,-470.965 278.173,-434.867 271.86,-410.013"/>
<polygon fill="black" stroke="black" points="275.203,-408.957 269.349,-400.126 268.419,-410.68 275.203,-408.957"/>
</g>
<!-- TEAM_ROLE -->
<g id="node3" class="node"><title>TEAM_ROLE</title>
<ellipse fill="none" stroke="black" cx="367" cy="-436" rx="63.5411" ry="18"/>
<text text-anchor="middle" x="367" y="-432.3" font-family="Times,serif" font-size="14.00">TEAM_ROLE</text>
</g>
<!-- IDENTITY&#45;&gt;TEAM_ROLE -->
<g id="edge2" class="edge"><title>IDENTITY&#45;&gt;TEAM_ROLE</title>
<path fill="none" stroke="black" d="M312.884,-492.662C321.973,-483.314 333.542,-471.414 343.649,-461.018"/>
<polygon fill="black" stroke="black" points="346.232,-463.383 350.693,-453.773 341.213,-458.503 346.232,-463.383"/>
</g>
<!-- WORKITEM -->
<g id="node4" class="node"><title>WORKITEM</title>
<ellipse fill="none" stroke="black" cx="263" cy="-166" rx="59.1941" ry="18"/>
<text text-anchor="middle" x="263" y="-162.3" font-family="Times,serif" font-size="14.00">WORKITEM</text>
</g>
<!-- USER&#45;&gt;WORKITEM -->
<g id="edge3" class="edge"><title>USER&#45;&gt;WORKITEM</title>
<path fill="none" stroke="black" d="M264.84,-363.849C264.494,-326.832 263.675,-239.181 263.256,-194.386"/>
<polygon fill="black" stroke="black" points="266.754,-194.199 263.161,-184.232 259.755,-194.265 266.754,-194.199"/>
<text text-anchor="middle" x="310.5" y="-280.3" font-family="Times,serif" font-size="14.00">CRUD|Assigned</text>
</g>
<!-- TEAM -->
<g id="node5" class="node"><title>TEAM</title>
<ellipse fill="none" stroke="black" cx="367" cy="-328" rx="36.096" ry="18"/>
<text text-anchor="middle" x="367" y="-324.3" font-family="Times,serif" font-size="14.00">TEAM</text>
</g>
<!-- TEAM_ROLE&#45;&gt;TEAM -->
<g id="edge4" class="edge"><title>TEAM_ROLE&#45;&gt;TEAM</title>
<path fill="none" stroke="black" d="M367,-417.969C367,-401.378 367,-375.883 367,-356.431"/>
<polygon fill="black" stroke="black" points="370.5,-356.341 367,-346.341 363.5,-356.341 370.5,-356.341"/>
</g>
<!-- PERMISSION -->
<g id="node6" class="node"><title>PERMISSION</title>
<ellipse fill="none" stroke="black" cx="485" cy="-328" rx="63.5411" ry="18"/>
<text text-anchor="middle" x="485" y="-324.3" font-family="Times,serif" font-size="14.00">PERMISSION</text>
</g>
<!-- TEAM_ROLE&#45;&gt;PERMISSION -->
<g id="edge5" class="edge"><title>TEAM_ROLE&#45;&gt;PERMISSION</title>
<path fill="none" stroke="black" d="M385.179,-418.67C404.957,-400.903 436.738,-372.354 459.117,-352.25"/>
<polygon fill="black" stroke="black" points="461.506,-354.81 466.606,-345.523 456.828,-349.602 461.506,-354.81"/>
</g>
<!-- WORKITEM&#45;&gt;WORKITEM -->
<g id="edge9" class="edge"><title>WORKITEM&#45;&gt;WORKITEM</title>
<path fill="none" stroke="black" d="M318.373,-172.585C330.864,-171.992 340,-169.797 340,-166 340,-163.33 335.483,-161.453 328.459,-160.367"/>
<polygon fill="black" stroke="black" points="328.657,-156.87 318.373,-159.415 328,-163.839 328.657,-156.87"/>
<text text-anchor="middle" x="352" y="-162.3" font-family="Times,serif" font-size="14.00">path</text>
</g>
<!-- WORKITEM_TYPE -->
<g id="node9" class="node"><title>WORKITEM_TYPE</title>
<ellipse fill="none" stroke="black" cx="117" cy="-92" rx="86.1637" ry="18"/>
<text text-anchor="middle" x="117" y="-88.3" font-family="Times,serif" font-size="14.00">WORKITEM_TYPE</text>
</g>
<!-- WORKITEM&#45;&gt;WORKITEM_TYPE -->
<g id="edge10" class="edge"><title>WORKITEM&#45;&gt;WORKITEM_TYPE</title>
<path fill="none" stroke="black" d="M233.102,-150.256C211.523,-139.614 182.115,-125.111 158.296,-113.365"/>
<polygon fill="black" stroke="black" points="159.654,-110.132 149.137,-108.848 156.558,-116.41 159.654,-110.132"/>
</g>
<!-- LINK -->
<g id="node10" class="node"><title>LINK</title>
<ellipse fill="none" stroke="black" cx="263" cy="-92" rx="31.2735" ry="18"/>
<text text-anchor="middle" x="263" y="-88.3" font-family="Times,serif" font-size="14.00">LINK</text>
</g>
<!-- WORKITEM&#45;&gt;LINK -->
<g id="edge11" class="edge"><title>WORKITEM&#45;&gt;LINK</title>
<path fill="none" stroke="black" d="M257.16,-147.937C256.275,-139.598 256.036,-129.364 256.441,-119.998"/>
<polygon fill="black" stroke="black" points="259.938,-120.168 257.173,-109.941 252.956,-119.66 259.938,-120.168"/>
</g>
<!-- PROJECT -->
<g id="node7" class="node"><title>PROJECT</title>
<ellipse fill="none" stroke="black" cx="369" cy="-240" rx="48.1437" ry="18"/>
<text text-anchor="middle" x="369" y="-236.3" font-family="Times,serif" font-size="14.00">PROJECT</text>
</g>
<!-- TEAM&#45;&gt;PROJECT -->
<g id="edge6" class="edge"><title>TEAM&#45;&gt;PROJECT</title>
<path fill="none" stroke="black" d="M367.405,-309.597C367.68,-297.746 368.051,-281.817 368.365,-268.292"/>
<polygon fill="black" stroke="black" points="371.869,-268.163 368.603,-258.084 364.871,-268 371.869,-268.163"/>
</g>
<!-- PROJECT&#45;&gt;WORKITEM -->
<g id="edge7" class="edge"><title>PROJECT&#45;&gt;WORKITEM</title>
<path fill="none" stroke="black" d="M346.779,-223.906C331.683,-213.653 311.49,-199.937 294.711,-188.54"/>
<polygon fill="black" stroke="black" points="296.532,-185.545 286.293,-182.822 292.598,-191.336 296.532,-185.545"/>
</g>
<!-- REPOSITORY -->
<g id="node8" class="node"><title>REPOSITORY</title>
<ellipse fill="none" stroke="black" cx="448" cy="-166" rx="64.4914" ry="18"/>
<text text-anchor="middle" x="448" y="-162.3" font-family="Times,serif" font-size="14.00">REPOSITORY</text>
</g>
<!-- PROJECT&#45;&gt;REPOSITORY -->
<g id="edge8" class="edge"><title>PROJECT&#45;&gt;REPOSITORY</title>
<path fill="none" stroke="black" d="M386.533,-223.021C397.123,-213.369 410.802,-200.902 422.566,-190.18"/>
<polygon fill="black" stroke="black" points="424.935,-192.757 429.969,-183.434 420.22,-187.583 424.935,-192.757"/>
</g>
<!-- WORKITEM_FAMILY -->
<g id="node11" class="node"><title>WORKITEM_FAMILY</title>
<ellipse fill="none" stroke="black" cx="98" cy="-18" rx="98.1881" ry="18"/>
<text text-anchor="middle" x="98" y="-14.3" font-family="Times,serif" font-size="14.00">WORKITEM_FAMILY</text>
</g>
<!-- WORKITEM_TYPE&#45;&gt;WORKITEM_FAMILY -->
<g id="edge12" class="edge"><title>WORKITEM_TYPE&#45;&gt;WORKITEM_FAMILY</title>
<path fill="none" stroke="black" d="M112.497,-73.937C110.329,-65.7188 107.674,-55.66 105.232,-46.4059"/>
<polygon fill="black" stroke="black" points="108.538,-45.2166 102.602,-36.4407 101.77,-47.0027 108.538,-45.2166"/>
</g>
<!-- LINK&#45;&gt;WORKITEM -->
<g id="edge13" class="edge"><title>LINK&#45;&gt;WORKITEM</title>
<path fill="none" stroke="black" d="M268.827,-109.941C269.718,-118.261 269.964,-128.49 269.565,-137.864"/>
<polygon fill="black" stroke="black" points="266.067,-137.712 268.84,-147.937 273.049,-138.214 266.067,-137.712"/>
</g>
<!-- LINK_TYPE -->
<g id="node12" class="node"><title>LINK_TYPE</title>
<ellipse fill="none" stroke="black" cx="273" cy="-18" rx="57.2688" ry="18"/>
<text text-anchor="middle" x="273" y="-14.3" font-family="Times,serif" font-size="14.00">LINK_TYPE</text>
</g>
<!-- LINK&#45;&gt;LINK_TYPE -->
<g id="edge14" class="edge"><title>LINK&#45;&gt;LINK_TYPE</title>
<path fill="none" stroke="black" d="M265.37,-73.937C266.511,-65.7188 267.908,-55.66 269.194,-46.4059"/>
<polygon fill="black" stroke="black" points="272.669,-46.8271 270.578,-36.4407 265.735,-45.8641 272.669,-46.8271"/>
</g>
</g>
</svg>
